<?xml version="1.0" encoding="utf-8"?>
<!-- Generator: Adobe Illustrator 19.0.0, SVG Export Plug-In . SVG Version: 6.00 Build 0)  -->
<svg version="1.1" id="Layer_1" xmlns="http://www.w3.org/2000/svg" xmlns:xlink="http://www.w3.org/1999/xlink" x="0px" y="0px"
	 viewBox="-471 273 16 16" style="enable-background:new -471 273 16 16;" xml:space="preserve">
<style type="text/css">
	.st0{fill:#FFFFFF;}
</style>
<path class="st0" d="M-459.3,283.3c2.1-2.9,1.5-7-1.4-9.1c-2.9-2.1-7-1.5-9.1,1.4c-2.1,2.9-1.5,7,1.4,9.1c2.3,1.7,5.4,1.7,7.7,0h0
	c0,0,0.1,0.1,0.1,0.1l3.9,3.9c0.4,0.4,1,0.4,1.4,0c0.4-0.4,0.4-1,0-1.4l-3.9-3.9C-459.2,283.4-459.2,283.4-459.3,283.3L-459.3,283.3
	z M-459,279.5c0,3-2.5,5.5-5.5,5.5s-5.5-2.5-5.5-5.5s2.5-5.5,5.5-5.5S-459,276.5-459,279.5z"/>
</svg>
